<?xml version="1.0" encoding="UTF-8" standalone="no"?>
<!DOCTYPE svg PUBLIC "-//W3C//DTD SVG 1.1//EN" "http://www.w3.org/Graphics/SVG/1.1/DTD/svg11.dtd">
<svg xmlns="http://www.w3.org/2000/svg" version="1.1" viewBox="0 0 1368 682">
<path fill="#f2f2f2" d="
  M 638.14 454.70
  C 627.49 453.52 617.82 444.82 616.46 434.15
  A 1.80 1.79 -10.0 0 1 617.85 432.17
  Q 621.70 431.28 624.25 432.13
  A 0.88 0.80 -87.2 0 1 624.80 432.80
  C 628.13 451.04 654.08 450.90 657.33 432.65
  A 0.75 0.75 -0.6 0 1 657.92 432.05
  Q 661.63 431.32 664.68 431.93
  A 1.38 1.38 -78.6 0 1 665.76 433.56
  C 662.94 447.25 651.93 456.24 638.14 454.70
  Z"
/>
<path fill="#f2f2f2" d="
  M 732.19 452.17
  C 716.74 459.75 698.98 450.45 696.32 433.56
  A 1.55 1.10 84.2 0 1 697.32 431.79
  L 703.79 431.78
  A 1.06 1.03 84.8 0 1 704.82 432.67
  C 707.90 451.10 734.06 450.88 737.34 432.64
  A 0.81 0.77 87.9 0 1 737.90 432.01
  Q 741.38 431.06 743.73 431.43
  Q 746.22 431.82 745.63 434.27
  Q 742.53 447.09 732.19 452.17
  Z"
/>
</svg>
