<?xml version="1.0" encoding="UTF-8" standalone="no"?>
<!DOCTYPE svg PUBLIC "-//W3C//DTD SVG 1.1//EN" "http://www.w3.org/Graphics/SVG/1.1/DTD/svg11.dtd">
<svg xmlns="http://www.w3.org/2000/svg" version="1.1" viewBox="0 0 1368 682">
<path fill="#f2f2f2" d="
  M 392.44 220.06
  L 67.30 220.02
  A 0.54 0.51 -0.5 0 1 66.76 219.52
  L 66.54 207.50
  A 0.52 0.49 -0.5 0 1 67.06 207.00
  L 403.95 206.99
  A 0.32 0.32 -12.4 0 0 404.24 206.54
  C 402.59 202.99 400.53 198.25 397.05 196.20
  Q 340.47 162.99 283.78 129.99
  Q 282.02 128.97 279.99 128.93
  Q 176.35 127.04 72.95 124.99
  A 0.50 0.50 0.6 0 1 72.46 124.49
  L 72.49 112.51
  A 0.50 0.49 -89.4 0 1 72.99 112.01
  Q 178.45 114.03 283.89 116.07
  Q 285.92 116.10 287.68 117.13
  Q 347.18 151.98 406.67 186.72
  A 0.79 0.78 44.4 0 0 407.46 186.72
  L 450.03 161.52
  Q 450.95 160.97 450.43 161.91
  L 423.01 211.23
  A 1.24 1.23 44.8 0 0 423.02 212.45
  L 490.05 327.45
  Q 490.67 328.52 491.67 329.23
  L 573.66 387.75
  A 0.77 0.76 35.8 0 1 573.84 388.82
  L 567.01 398.37
  A 0.51 0.51 36.1 0 1 566.30 398.48
  Q 524.53 368.67 482.78 338.85
  Q 480.81 337.44 479.59 335.34
  Q 446.60 278.58 413.42 221.93
  A 0.46 0.45 -33.2 0 0 412.76 221.80
  L 120.95 435.49
  A 0.56 0.55 -38.9 0 1 120.21 435.42
  Q 116.22 430.80 113.20 425.63
  A 0.56 0.55 -33.2 0 1 113.36 424.90
  L 392.53 220.36
  Q 392.94 220.06 392.44 220.06
  Z"
/>
<path fill="#f2f2f2" d="
  M 975.92 220.39
  L 1255.00 424.78
  A 0.95 0.89 36.7 0 1 1255.23 426.07
  L 1248.32 435.38
  A 0.54 0.50 36.8 0 1 1247.59 435.46
  L 955.45 221.52
  A 0.52 0.52 33.0 0 0 954.69 221.68
  Q 921.56 278.53 888.43 335.37
  Q 887.21 337.46 885.23 338.88
  Q 843.57 368.69 801.86 398.42
  A 0.53 0.51 -36.0 0 1 801.13 398.32
  L 794.18 388.59
  A 0.54 0.50 -35.2 0 1 794.33 387.87
  Q 834.84 358.90 875.36 329.99
  Q 877.33 328.59 878.56 326.49
  Q 911.60 269.83 944.61 213.18
  A 0.86 0.86 0.0 0 0 944.61 212.32
  L 916.74 161.90
  Q 916.49 161.45 916.93 161.71
  L 959.93 186.97
  A 1.05 1.01 44.3 0 0 960.97 186.98
  Q 1020.67 152.17 1080.25 117.20
  Q 1082.00 116.17 1084.03 116.13
  Q 1189.60 114.05 1294.83 112.05
  A 0.69 0.68 89.2 0 1 1295.52 112.73
  L 1295.58 124.39
  A 0.51 0.50 88.3 0 1 1295.10 124.91
  Q 1290.77 125.07 1276.31 125.36
  Q 1182.17 127.27 1088.03 128.96
  Q 1085.99 129.00 1084.23 130.02
  Q 1027.47 163.12 970.76 196.33
  C 967.47 198.26 965.35 203.32 963.46 206.52
  Q 963.18 207.00 963.73 207.00
  L 1300.69 207.00
  A 0.51 0.50 0.0 0 1 1301.20 207.50
  L 1301.20 219.49
  A 0.51 0.51 0.0 0 1 1300.69 220.00
  L 976.05 220.00
  Q 975.38 220.00 975.92 220.39
  Z"
/>
</svg>
