<?xml version="1.0" encoding="UTF-8" standalone="no"?>
<!DOCTYPE svg PUBLIC "-//W3C//DTD SVG 1.1//EN" "http://www.w3.org/Graphics/SVG/1.1/DTD/svg11.dtd">
<svg xmlns="http://www.w3.org/2000/svg" version="1.1" viewBox="0 0 1368 682">
<path fill="#00b050" d="
  M 392.30 220.75
  A 0.58 0.58 -81.4 0 0 391.75 220.00
  L 67.30 220.00
  A 0.55 0.55 -2.9 0 1 66.75 219.51
  Q 66.10 213.44 66.75 207.50
  A 0.56 0.55 -87.1 0 1 67.30 207.00
  L 403.95 206.99
  A 0.32 0.32 -12.4 0 0 404.24 206.54
  C 402.60 203.02 400.52 198.24 397.06 196.21
  Q 340.48 162.99 283.78 130.00
  Q 282.02 128.98 279.98 128.94
  Q 176.46 127.04 72.77 124.99
  A 0.43 0.41 -89.3 0 1 72.37 124.56
  L 72.48 112.96
  A 0.97 0.94 -89.1 0 1 73.44 112.00
  Q 178.46 114.08 283.66 116.02
  Q 285.70 116.06 287.45 117.08
  Q 347.04 151.81 406.45 186.62
  A 1.12 1.11 -45.3 0 0 407.57 186.61
  L 449.36 161.90
  Q 450.97 160.96 450.06 162.58
  L 423.01 211.17
  A 1.28 1.27 -45.6 0 0 423.02 212.44
  L 490.09 327.50
  Q 490.69 328.52 491.66 329.21
  L 573.63 387.74
  A 0.80 0.80 35.7 0 1 573.82 388.86
  L 567.05 398.32
  A 0.56 0.55 -54.0 0 1 566.27 398.45
  Q 524.54 368.67 482.80 338.85
  Q 480.82 337.43 479.59 335.33
  Q 446.52 278.57 413.50 221.91
  A 0.50 0.50 56.6 0 0 412.78 221.76
  L 120.93 435.49
  A 0.53 0.50 -36.6 0 1 120.21 435.40
  L 112.97 425.84
  A 0.52 0.51 -36.3 0 1 113.09 425.12
  Q 252.27 323.20 390.84 221.71
  C 391.11 221.51 392.27 220.86 392.30 220.75
  Z"
/>
<path fill="#00b050" d="
  M 954.76 221.40
  Q 921.71 278.44 888.35 335.43
  Q 887.09 337.59 885.05 339.04
  Q 843.46 368.73 801.87 398.43
  A 0.54 0.50 -35.2 0 1 801.14 398.33
  L 794.18 388.58
  A 0.53 0.49 -35.5 0 1 794.33 387.87
  Q 834.84 358.89 875.36 329.98
  Q 877.33 328.58 878.54 326.49
  Q 911.59 269.78 944.66 213.10
  A 0.87 0.84 46.1 0 0 944.66 212.24
  L 916.58 161.70
  Q 916.33 161.25 916.77 161.50
  L 959.93 186.91
  A 1.07 1.04 44.8 0 0 961.00 186.92
  Q 1020.74 152.18 1080.02 117.26
  Q 1081.77 116.23 1083.80 116.18
  Q 1189.23 113.99 1294.72 112.08
  A 0.52 0.50 -1.1 0 1 1295.25 112.57
  L 1295.55 124.36
  A 0.53 0.51 -2.2 0 1 1295.04 124.89
  Q 1290.55 125.11 1286.00 125.20
  Q 1186.86 127.05 1087.72 129.07
  Q 1085.59 129.12 1083.76 130.19
  Q 1027.42 163.28 970.97 196.18
  C 967.53 198.19 965.44 203.12 963.51 206.44
  Q 963.19 207.00 963.84 207.00
  L 1300.69 207.00
  A 0.52 0.49 0.5 0 1 1301.21 207.50
  L 1300.99 219.49
  A 0.54 0.52 0.5 0 1 1300.45 220.00
  L 976.05 220.00
  Q 975.38 220.00 975.92 220.40
  L 1255.01 424.80
  A 0.92 0.87 36.3 0 1 1255.24 426.06
  L 1248.32 435.38
  A 0.54 0.50 36.8 0 1 1247.59 435.46
  L 955.18 221.31
  A 0.29 0.29 -57.1 0 0 954.76 221.40
  Z"
/>
</svg>
