<?xml version="1.0" encoding="UTF-8" standalone="no"?>
<!DOCTYPE svg PUBLIC "-//W3C//DTD SVG 1.1//EN" "http://www.w3.org/Graphics/SVG/1.1/DTD/svg11.dtd">
<svg xmlns="http://www.w3.org/2000/svg" version="1.1" viewBox="0 0 1368 682">
<path fill="#0070c0" d="
  M 391.47 220.06
  L 67.30 220.02
  A 0.56 0.55 87.1 0 1 66.75 219.52
  Q 66.10 213.49 66.75 207.49
  A 0.55 0.55 2.9 0 1 67.30 207.00
  L 403.95 206.99
  A 0.32 0.31 77.0 0 0 404.23 206.53
  C 402.54 202.80 400.49 198.19 396.81 196.04
  Q 340.40 163.02 283.96 130.05
  Q 282.20 129.02 280.17 128.98
  Q 176.45 127.00 72.74 125.01
  A 0.39 0.38 -89.2 0 1 72.37 124.62
  L 72.48 112.91
  A 0.93 0.91 -89.4 0 1 73.40 111.99
  Q 178.70 114.10 283.65 116.02
  Q 285.70 116.06 287.45 117.08
  Q 347.04 151.81 406.36 186.57
  A 1.29 1.28 -45.2 0 0 407.68 186.56
  L 450.03 161.52
  Q 450.97 160.96 450.44 161.92
  L 423.01 211.18
  A 1.28 1.26 44.5 0 0 423.03 212.44
  L 490.06 327.46
  Q 490.69 328.53 491.69 329.25
  L 573.46 387.61
  A 1.04 1.03 35.8 0 1 573.70 389.06
  L 566.97 398.38
  A 0.48 0.48 35.7 0 1 566.30 398.49
  Q 524.53 368.67 482.79 338.86
  Q 480.81 337.44 479.59 335.34
  Q 446.60 278.59 413.43 221.94
  A 0.47 0.45 -33.0 0 0 412.76 221.81
  L 120.71 435.67
  A 0.39 0.38 -35.8 0 1 120.18 435.59
  L 112.98 425.82
  A 0.51 0.50 -36.1 0 1 113.10 425.12
  L 391.79 221.02
  Q 393.10 220.06 391.47 220.06
  Z"
/>
<path fill="#0070c0" d="
  M 964.06 206.94
  L 1300.69 206.98
  A 0.52 0.49 0.5 0 1 1301.21 207.48
  L 1300.99 219.50
  A 0.54 0.51 0.5 0 1 1300.45 220.00
  L 976.05 220.00
  Q 975.37 220.00 975.92 220.40
  L 1254.94 424.75
  A 1.10 1.09 -53.9 0 1 1255.17 426.28
  L 1248.49 435.45
  A 0.55 0.54 -53.4 0 1 1247.72 435.57
  L 955.42 221.52
  A 0.46 0.45 33.2 0 0 954.76 221.65
  Q 921.57 278.39 888.60 335.17
  Q 887.34 337.34 885.30 338.81
  Q 843.58 368.73 801.75 398.46
  A 0.50 0.49 -35.7 0 1 801.05 398.35
  L 794.11 388.68
  A 0.60 0.57 -35.9 0 1 794.26 387.87
  Q 834.93 358.90 875.47 329.85
  Q 877.43 328.44 878.65 326.36
  Q 911.63 269.70 944.67 213.10
  A 0.87 0.84 46.1 0 0 944.67 212.24
  L 916.76 161.88
  Q 916.51 161.42 916.94 161.68
  L 959.70 186.82
  A 1.49 1.45 44.5 0 0 961.20 186.83
  L 1081.26 116.64
  Q 1082.15 116.12 1083.18 116.10
  L 1294.62 112.04
  A 0.91 0.88 89.1 0 1 1295.52 112.94
  L 1295.61 124.45
  A 0.56 0.54 89.5 0 1 1295.08 125.01
  Q 1191.54 127.06 1087.83 129.01
  Q 1085.81 129.05 1084.05 130.08
  Q 1027.71 163.04 971.35 195.96
  C 967.56 198.18 965.55 202.66 963.77 206.48
  A 0.33 0.32 -77.6 0 0 964.06 206.94
  Z"
/>
</svg>
