<?xml version="1.0" encoding="UTF-8" standalone="no"?>
<!DOCTYPE svg PUBLIC "-//W3C//DTD SVG 1.1//EN" "http://www.w3.org/Graphics/SVG/1.1/DTD/svg11.dtd">
<svg xmlns="http://www.w3.org/2000/svg" version="1.1" viewBox="0 0 1368 682">
<g stroke-width="2.00" fill="none" stroke-linecap="butt">
<path stroke="#323232" vector-effect="non-scaling-stroke" d="
  M 279.50 115.29
  C 283.18 116.06 285.81 116.49 289.09 118.76
  C 292.75 121.29 297.77 123.86 300.54 125.51
  C 328.18 141.93 356.09 157.95 383.63 174.55
  Q 392.62 179.96 402.15 184.46"
/>
<path stroke="#313131" vector-effect="non-scaling-stroke" d="
  M 573.50 389.54
  L 566.30 398.83
  A 0.54 0.51 -53.0 0 1 565.58 398.95
  L 481.21 338.40
  Q 480.34 337.77 479.79 336.83
  L 413.19 221.97
  A 0.62 0.61 -32.9 0 0 412.29 221.78
  Q 276.96 320.79 142.45 419.43
  C 136.28 423.95 128.78 428.87 122.59 434.77"
/>
<path stroke="#323232" vector-effect="non-scaling-stroke" d="
  M 121.48 418.59
  Q 130.07 413.95 137.87 408.04
  Q 144.51 403.00 144.59 402.95
  Q 268.95 311.89 393.06 221.00
  Q 393.74 220.50 392.89 220.50
  Q 245.46 220.50 98.41 220.50
  Q 98.32 220.50 88.60 220.15
  Q 80.56 219.87 72.61 221.44"
/>
<path stroke="#323232" vector-effect="non-scaling-stroke" d="
  M 69.11 207.43
  Q 71.94 208.54 74.75 208.54
  Q 239.72 208.55 404.68 208.44
  Q 405.22 208.44 404.96 207.98
  L 399.07 197.92
  Q 398.62 197.16 397.73 196.63
  L 282.77 129.02
  Q 282.00 128.57 281.10 128.55
  Q 200.47 126.94 119.54 125.43
  Q 119.43 125.43 100.47 124.71
  Q 87.10 124.20 73.70 125.12"
/>
<path stroke="#303030" vector-effect="non-scaling-stroke" d="
  M 1294.59 125.03
  Q 1269.88 124.72 1245.24 125.42
  C 1192.70 126.92 1140.10 127.44 1087.55 128.70
  Q 1085.50 128.75 1083.73 129.78
  Q 1026.62 163.11 969.01 197.09
  Q 968.41 197.44 968.06 198.05
  L 962.37 207.90
  Q 962.02 208.50 962.71 208.50
  L 1298.25 208.46"
/>
<path stroke="#313131" vector-effect="non-scaling-stroke" d="
  M 1294.50 221.04
  C 1283.63 220.16 1272.13 220.50 1262.12 220.50
  Q 1118.33 220.45 974.55 220.56
  Q 974.06 220.56 974.46 220.86
  L 1246.66 420.18"
/>
<path stroke="#313131" vector-effect="non-scaling-stroke" d="
  M 1243.75 434.71
  C 1242.59 431.10 1240.25 430.49 1237.57 428.52
  Q 1096.35 324.95 954.96 221.60
  A 0.45 0.44 -57.3 0 0 954.31 221.75
  Q 921.24 278.73 888.07 335.65
  Q 886.81 337.81 884.78 339.28
  Q 843.35 369.14 801.37 399.13
  A 0.57 0.55 54.8 0 1 800.59 398.98
  L 793.83 389.51"
/>
<path stroke="#313131" vector-effect="non-scaling-stroke" d="
  M 965.29 184.50
  Q 966.53 184.49 967.60 183.87
  C 1001.11 164.39 1034.30 144.05 1068.14 125.16
  Q 1075.53 121.04 1082.12 115.64"
/>
<path stroke="#8a8a8a" vector-effect="non-scaling-stroke" d="
  M 616.70 428.06
  L 624.11 428.81
  A 0.69 0.66 -81.8 0 0 624.82 428.26
  C 628.32 410.73 650.84 409.92 657.02 426.60
  Q 657.16 426.98 657.11 427.55
  C 656.87 430.22 663.82 428.35 665.20 428.05
  A 0.51 0.51 -12.1 0 0 665.59 427.45
  C 659.95 399.13 620.72 399.23 616.40 427.66
  A 0.36 0.33 -83.6 0 0 616.70 428.06"
/>
<path stroke="#8a8a8a" vector-effect="non-scaling-stroke" d="
  M 696.68 428.06
  L 704.12 428.81
  A 0.68 0.65 -81.7 0 0 704.82 428.27
  C 706.52 419.76 712.96 414.42 721.68 414.79
  Q 733.04 415.27 737.64 428.36
  A 1.08 1.03 -13.2 0 0 738.78 429.03
  L 745.17 428.26
  A 0.60 0.59 -8.4 0 0 745.69 427.58
  C 740.81 399.24 701.33 399.18 696.31 427.56
  A 0.43 0.42 -82.4 0 0 696.68 428.06"
/>
</g>
<path fill="#404040" d="
  M 279.50 115.29
  C 283.18 116.06 285.81 116.49 289.09 118.76
  C 292.75 121.29 297.77 123.86 300.54 125.51
  C 328.18 141.93 356.09 157.95 383.63 174.55
  Q 392.62 179.96 402.15 184.46
  L 405.82 187.41
  A 1.50 1.34 48.2 0 0 407.44 187.59
  L 447.74 163.50
  Q 449.35 162.54 448.44 164.18
  L 422.06 211.82
  A 1.38 1.35 -45.7 0 0 422.06 213.18
  Q 453.78 268.03 485.47 322.88
  Q 488.34 327.84 490.98 330.37
  C 493.87 333.12 498.36 335.79 500.79 337.52
  Q 537.26 363.38 573.50 389.54
  L 566.30 398.83
  A 0.54 0.51 -53.0 0 1 565.58 398.95
  L 481.21 338.40
  Q 480.34 337.77 479.79 336.83
  L 413.19 221.97
  A 0.62 0.61 -32.9 0 0 412.29 221.78
  Q 276.96 320.79 142.45 419.43
  C 136.28 423.95 128.78 428.87 122.59 434.77
  Q 119.52 436.76 116.71 434.75
  A 1.62 1.29 -84.9 0 1 116.18 433.95
  Q 115.21 430.55 112.56 427.66
  A 0.96 0.96 -39.0 0 1 112.71 426.23
  Q 117.95 422.57 121.48 418.59
  Q 130.07 413.95 137.87 408.04
  Q 144.51 403.00 144.59 402.95
  Q 268.95 311.89 393.06 221.00
  Q 393.74 220.50 392.89 220.50
  Q 245.46 220.50 98.41 220.50
  Q 98.32 220.50 88.60 220.15
  Q 80.56 219.87 72.61 221.44
  Q 71.57 220.14 69.02 220.59
  Q 65.98 221.14 66.41 218.24
  Q 66.48 217.73 66.34 217.28
  Q 64.23 210.91 69.11 207.43
  Q 71.94 208.54 74.75 208.54
  Q 239.72 208.55 404.68 208.44
  Q 405.22 208.44 404.96 207.98
  L 399.07 197.92
  Q 398.62 197.16 397.73 196.63
  L 282.77 129.02
  Q 282.00 128.57 281.10 128.55
  Q 200.47 126.94 119.54 125.43
  Q 119.43 125.43 100.47 124.71
  Q 87.10 124.20 73.70 125.12
  Q 70.23 123.02 70.14 118.64
  C 70.09 115.95 71.48 114.20 73.58 112.77
  A 1.71 1.45 24.7 0 1 74.51 112.51
  Q 164.87 114.61 255.25 114.75
  Q 261.56 114.76 279.50 115.29
  Z"
/>
<path fill="#404040" d="
  M 1294.59 125.03
  Q 1269.88 124.72 1245.24 125.42
  C 1192.70 126.92 1140.10 127.44 1087.55 128.70
  Q 1085.50 128.75 1083.73 129.78
  Q 1026.62 163.11 969.01 197.09
  Q 968.41 197.44 968.06 198.05
  L 962.37 207.90
  Q 962.02 208.50 962.71 208.50
  L 1298.25 208.46
  Q 1302.02 207.95 1301.61 212.26
  Q 1301.25 215.96 1301.20 218.66
  Q 1301.17 220.70 1299.14 220.57
  Q 1296.19 220.39 1294.50 221.04
  C 1283.63 220.16 1272.13 220.50 1262.12 220.50
  Q 1118.33 220.45 974.55 220.56
  Q 974.06 220.56 974.46 220.86
  L 1246.66 420.18
  L 1254.19 425.75
  Q 1255.81 426.95 1254.43 428.44
  Q 1251.62 431.46 1251.67 434.29
  Q 1251.71 436.58 1249.45 436.05
  L 1243.75 434.71
  C 1242.59 431.10 1240.25 430.49 1237.57 428.52
  Q 1096.35 324.95 954.96 221.60
  A 0.45 0.44 -57.3 0 0 954.31 221.75
  Q 921.24 278.73 888.07 335.65
  Q 886.81 337.81 884.78 339.28
  Q 843.35 369.14 801.37 399.13
  A 0.57 0.55 54.8 0 1 800.59 398.98
  L 793.83 389.51
  Q 796.42 387.32 802.06 383.31
  Q 839.64 356.65 876.82 330.20
  Q 877.85 329.46 878.49 328.37
  L 944.97 213.89
  A 1.45 1.45 45.6 0 0 944.98 212.46
  L 918.09 164.36
  Q 917.00 162.41 918.92 163.55
  L 959.11 187.47
  A 2.23 1.77 39.2 0 0 961.38 187.50
  L 965.29 184.50
  Q 966.53 184.49 967.60 183.87
  C 1001.11 164.39 1034.30 144.05 1068.14 125.16
  Q 1075.53 121.04 1082.12 115.64
  Q 1100.09 114.74 1126.75 114.75
  C 1177.71 114.77 1237.69 113.45 1293.93 112.71
  A 1.74 1.72 -15.8 0 1 1295.43 113.54
  Q 1296.45 115.21 1298.87 115.30
  A 0.67 0.67 -81.1 0 1 1299.49 116.15
  Q 1297.80 122.18 1294.59 125.03
  Z"
/>
<path fill="#232323" d="
  M 279.50 115.29
  Q 283.51 115.43 287.51 115.81
  C 296.78 116.69 304.08 116.08 312.94 119.89
  C 319.78 122.84 326.31 122.10 332.44 125.56
  C 340.37 130.05 348.65 133.42 356.44 138.31
  Q 359.01 139.93 369.75 147.67
  C 376.96 152.87 382.19 158.99 388.48 164.99
  Q 390.83 167.23 391.78 170.32
  A 2.86 2.85 -0.4 0 0 393.73 172.24
  Q 395.63 172.79 396.06 174.69
  Q 396.63 177.14 402.15 184.46
  Q 392.62 179.96 383.63 174.55
  C 356.09 157.95 328.18 141.93 300.54 125.51
  C 297.77 123.86 292.75 121.29 289.09 118.76
  C 285.81 116.49 283.18 116.06 279.50 115.29
  Z"
/>
<path fill="#212121" d="
  M 1082.12 115.64
  Q 1075.53 121.04 1068.14 125.16
  C 1034.30 144.05 1001.11 164.39 967.60 183.87
  Q 966.53 184.49 965.29 184.50
  Q 966.78 181.54 971.06 175.81
  C 980.93 162.61 993.94 148.71 1007.80 140.70
  C 1014.30 136.94 1020.31 132.27 1027.55 129.29
  C 1031.48 127.67 1034.66 124.75 1038.76 123.80
  Q 1044.61 122.44 1053.02 120.74
  A 1.37 1.37 6.5 0 0 1053.99 119.97
  C 1054.70 118.45 1062.71 117.31 1064.33 116.97
  C 1070.18 115.74 1076.03 116.48 1082.12 115.64
  Z"
/>
<path fill="#232323" d="
  M 69.11 207.43
  Q 77.71 199.27 79.90 187.73
  Q 80.67 183.64 83.39 179.09
  A 3.13 3.08 59.0 0 0 83.83 177.26
  Q 83.34 170.74 84.89 165.84
  Q 85.46 164.06 84.85 162.29
  C 83.00 156.93 84.97 152.70 82.12 147.60
  Q 81.75 146.94 81.59 146.19
  C 80.51 140.97 78.76 136.21 77.38 131.19
  Q 76.48 127.96 73.70 125.12
  Q 87.10 124.20 100.47 124.71
  Q 119.43 125.43 119.54 125.43
  Q 200.47 126.94 281.10 128.55
  Q 282.00 128.57 282.77 129.02
  L 397.73 196.63
  Q 398.62 197.16 399.07 197.92
  L 404.96 207.98
  Q 405.22 208.44 404.68 208.44
  Q 239.72 208.55 74.75 208.54
  Q 71.94 208.54 69.11 207.43
  Z"
/>
<path fill="#202020" d="
  M 1294.59 125.03
  C 1291.01 129.29 1290.79 132.26 1289.18 136.85
  C 1288.32 139.29 1285.89 141.43 1285.50 144.25
  C 1285.03 147.63 1284.41 150.21 1284.32 153.94
  Q 1284.23 157.47 1283.19 162.19
  C 1282.64 164.66 1283.98 167.55 1283.90 170.28
  Q 1283.58 181.24 1288.31 189.94
  C 1290.82 194.55 1290.38 198.14 1294.44 202.06
  Q 1295.70 203.28 1298.25 208.46
  L 962.71 208.50
  Q 962.02 208.50 962.37 207.90
  L 968.06 198.05
  Q 968.41 197.44 969.01 197.09
  Q 1026.62 163.11 1083.73 129.78
  Q 1085.50 128.75 1087.55 128.70
  C 1140.10 127.44 1192.70 126.92 1245.24 125.42
  Q 1269.88 124.72 1294.59 125.03
  Z"
/>
<path fill="#232323" d="
  M 121.48 418.59
  Q 123.48 409.71 125.46 401.19
  Q 128.00 390.26 128.81 383.68
  Q 132.09 357.02 127.50 328.25
  Q 126.86 324.27 126.23 321.69
  C 123.88 312.09 122.43 302.34 118.33 293.28
  C 117.38 291.18 117.70 289.07 116.80 287.10
  Q 115.82 284.94 114.59 282.92
  C 112.03 278.69 110.36 274.27 108.04 269.93
  C 105.87 265.85 103.77 260.36 100.94 256.31
  Q 96.76 250.33 94.87 247.57
  Q 85.27 233.50 72.61 221.44
  Q 80.56 219.87 88.60 220.15
  Q 98.32 220.50 98.41 220.50
  Q 245.46 220.50 392.89 220.50
  Q 393.74 220.50 393.06 221.00
  Q 268.95 311.89 144.59 402.95
  Q 144.51 403.00 137.87 408.04
  Q 130.07 413.95 121.48 418.59
  Z"
/>
<path fill="#212121" d="
  M 1294.50 221.04
  L 1280.61 235.23
  Q 1279.99 235.86 1279.70 236.56
  C 1276.13 245.12 1269.00 250.51 1265.00 258.87
  Q 1263.82 261.36 1262.17 264.01
  C 1259.92 267.61 1259.17 271.68 1257.00 274.77
  C 1254.02 279.01 1253.24 284.02 1250.31 288.06
  Q 1249.71 288.90 1249.46 289.89
  Q 1247.14 298.95 1245.25 307.00
  C 1244.82 308.82 1244.30 309.14 1243.81 310.45
  Q 1242.23 314.72 1241.00 323.00
  C 1237.72 345.10 1235.04 357.41 1237.83 375.36
  Q 1239.38 385.27 1240.94 395.18
  C 1241.53 398.92 1242.00 406.69 1244.06 410.94
  Q 1246.47 415.90 1246.66 420.18
  L 974.46 220.86
  Q 974.06 220.56 974.55 220.56
  Q 1118.33 220.45 1262.12 220.50
  C 1272.13 220.50 1283.63 220.16 1294.50 221.04
  Z"
/>
<path fill="#222222" d="
  M 1243.75 434.71
  C 1222.68 434.07 1202.13 429.99 1181.00 429.73
  C 1156.34 429.43 1131.33 429.22 1106.77 431.70
  C 1088.21 433.57 1068.95 434.00 1050.66 437.57
  C 1038.27 439.99 1026.68 441.34 1015.26 443.16
  C 1008.39 444.25 1000.66 447.67 993.75 448.25
  Q 987.92 448.74 983.55 450.38
  C 977.20 452.75 971.54 453.72 965.08 455.01
  C 958.33 456.35 951.53 459.25 944.47 460.85
  Q 941.33 461.56 937.93 463.08
  Q 931.33 466.02 923.50 467.50
  C 919.33 468.29 916.50 471.12 911.22 472.11
  C 902.73 473.70 895.68 478.32 887.11 480.03
  A 5.54 5.50 -71.1 0 0 884.53 481.31
  C 881.38 484.13 877.52 484.64 873.76 486.25
  C 869.30 488.15 863.76 491.74 858.81 492.06
  Q 855.73 492.26 853.86 494.80
  Q 852.34 496.84 849.80 497.03
  Q 843.18 497.53 838.28 502.07
  C 829.74 509.97 820.50 517.31 811.66 524.91
  C 809.75 526.55 807.43 527.51 805.66 528.95
  Q 799.02 534.35 792.15 540.16
  A 1.26 1.25 40.1 0 0 792.33 542.20
  C 793.81 543.06 800.23 547.05 798.64 549.31
  A 0.52 0.47 36.4 0 1 797.93 549.38
  C 795.87 547.78 789.26 546.65 792.53 551.53
  A 1.90 1.52 0.9 0 0 793.27 552.14
  C 800.63 555.52 805.02 561.34 812.28 567.43
  C 814.33 569.14 816.60 571.93 819.83 573.40
  Q 824.09 575.32 826.42 579.05
  C 828.87 582.99 827.78 592.74 827.69 597.45
  A 0.88 0.87 -78.1 0 1 826.48 598.24
  Q 824.95 597.61 824.63 595.93
  Q 823.48 589.73 818.56 586.19
  Q 816.01 584.35 815.40 581.44
  A 1.15 0.92 -86.2 0 0 814.88 580.69
  Q 813.54 580.02 812.00 580.18
  A 1.75 1.25 -25.3 0 1 811.07 580.01
  C 806.01 577.11 803.39 572.22 797.95 569.47
  A 1.21 0.98 42.8 0 0 797.03 569.41
  Q 794.87 570.34 795.06 573.91
  A 0.74 0.74 -84.8 0 0 795.62 574.59
  C 801.85 576.17 803.81 578.80 809.44 584.29
  Q 813.87 588.61 817.07 593.50
  Q 818.08 595.04 817.13 596.63
  Q 814.24 601.41 811.05 604.84
  Q 809.90 606.07 809.42 604.46
  Q 808.72 602.13 809.25 599.23
  Q 809.61 597.28 808.23 595.84
  Q 798.46 585.68 788.04 575.39
  C 784.56 571.95 782.99 570.84 782.00 566.95
  Q 781.24 563.95 778.57 565.50
  Q 775.75 567.14 779.10 570.47
  A 1.57 1.57 40.2 0 1 779.27 572.47
  C 776.85 575.93 774.26 574.71 772.18 571.79
  Q 768.38 566.47 763.52 562.07
  C 761.77 560.49 761.04 559.02 758.23 559.32
  Q 756.50 559.50 754.17 559.50
  A 1.44 1.42 -90.0 0 1 752.75 558.06
  L 752.70 546.05
  A 1.32 1.13 25.1 0 0 752.32 545.21
  Q 750.23 543.14 750.25 541.25
  C 750.32 533.06 745.64 525.31 737.19 522.31
  C 728.14 519.10 719.06 517.42 709.50 519.20
  C 696.82 521.55 684.18 522.21 671.35 521.12
  C 663.77 520.47 652.41 517.33 643.64 518.39
  C 640.99 518.71 638.20 520.21 635.26 520.80
  Q 625.37 522.77 620.05 530.86
  C 617.76 534.35 616.19 536.39 616.40 540.03
  C 616.77 546.22 616.53 552.59 616.26 558.66
  A 0.90 0.88 0.7 0 1 615.37 559.51
  L 606.81 559.55
  A 1.53 1.39 -61.8 0 0 605.91 559.87
  C 599.29 565.04 595.49 572.27 588.96 577.44
  Q 586.78 579.18 586.51 576.40
  Q 586.20 573.04 588.12 569.37
  Q 589.00 567.69 587.36 566.72
  Q 584.86 565.25 583.61 568.41
  C 579.72 578.23 567.24 588.13 559.78 595.59
  Q 558.36 597.01 558.75 598.98
  Q 559.29 601.75 558.75 604.52
  Q 558.19 607.36 556.03 605.43
  Q 553.59 603.26 552.59 600.04
  A 3.35 3.34 -84.3 0 0 551.01 598.10
  Q 547.27 596.04 550.66 593.41
  C 554.43 590.48 554.19 586.67 558.93 582.96
  Q 566.42 577.10 570.69 572.69
  Q 572.24 571.08 571.18 569.00
  A 0.87 0.84 -12.5 0 0 570.43 568.54
  Q 566.58 568.48 565.61 572.26
  A 1.91 1.43 81.9 0 1 565.15 573.10
  C 558.14 580.13 545.63 584.41 542.70 593.78
  C 540.68 600.21 539.42 596.71 539.87 592.77
  Q 540.39 588.25 540.20 582.36
  Q 540.13 580.25 541.62 578.75
  C 544.96 575.42 549.50 572.08 552.65 569.26
  Q 558.49 564.04 564.32 558.81
  C 567.70 555.78 572.07 553.97 575.45 550.18
  A 1.01 0.89 28.6 0 0 574.91 548.70
  L 571.20 547.44
  Q 568.46 546.52 570.81 544.83
  L 574.93 541.87
  A 0.72 0.69 -41.8 0 0 575.02 540.77
  Q 555.39 523.72 536.27 507.87
  C 534.36 506.29 530.84 504.94 529.44 503.31
  Q 524.64 497.72 517.25 496.75
  C 515.16 496.48 512.44 493.73 509.98 492.88
  Q 504.95 491.12 500.04 489.51
  Q 499.52 489.34 499.07 489.05
  Q 495.27 486.55 492.01 485.44
  Q 486.83 483.66 486.29 483.41
  C 479.79 480.47 473.20 477.95 466.66 475.11
  C 460.60 472.48 454.26 472.47 448.31 468.94
  Q 446.71 467.99 442.47 467.18
  C 435.91 465.93 430.09 462.57 424.19 460.95
  Q 401.71 454.79 364.81 446.19
  Q 351.17 443.01 340.58 441.41
  C 326.14 439.24 315.77 436.91 303.41 435.70
  Q 281.34 433.54 259.25 431.50
  C 235.54 429.31 211.92 429.53 188.26 429.62
  C 166.21 429.70 144.70 433.95 122.59 434.77
  C 128.78 428.87 136.28 423.95 142.45 419.43
  Q 276.96 320.79 412.29 221.78
  A 0.62 0.61 -32.9 0 1 413.19 221.97
  L 479.79 336.83
  Q 480.34 337.77 481.21 338.40
  L 565.58 398.95
  A 0.54 0.51 -53.0 0 0 566.30 398.83
  L 573.50 389.54
  Q 575.23 390.87 575.27 386.66
  Q 575.28 385.21 575.07 383.78
  Q 570.97 355.51 575.00 326.52
  C 575.26 324.62 575.14 321.15 576.44 318.95
  Q 576.89 318.17 577.06 317.28
  C 578.89 307.71 580.39 298.37 584.68 290.16
  A 0.73 0.73 34.7 0 1 585.81 289.96
  Q 588.76 292.60 591.19 295.49
  C 608.01 315.46 625.15 336.00 641.94 355.14
  Q 643.35 356.75 645.41 356.13
  Q 652.42 354.01 659.95 352.48
  C 662.19 352.03 663.03 351.17 664.88 350.07
  A 1.71 1.66 29.9 0 1 665.82 349.83
  Q 672.61 350.03 679.33 349.25
  C 686.63 348.40 694.53 349.92 701.94 350.05
  A 1.61 1.44 61.5 0 1 702.83 350.37
  Q 704.78 351.83 706.56 352.19
  Q 714.67 353.82 723.32 355.97
  A 0.97 0.96 -61.8 0 0 724.27 355.68
  Q 751.61 325.59 776.28 294.76
  Q 778.57 291.90 781.58 289.80
  A 1.25 1.25 62.5 0 1 783.47 290.40
  Q 785.21 295.18 786.26 300.20
  C 787.04 303.92 789.06 306.90 789.75 311.00
  C 791.52 321.56 792.04 329.52 793.43 336.78
  C 795.30 346.57 795.47 356.69 794.79 366.62
  C 794.63 368.87 793.04 370.16 792.98 372.38
  C 792.79 378.64 791.31 384.21 791.42 389.81
  A 0.53 0.50 88.4 0 0 791.94 390.33
  Q 793.04 390.30 793.83 389.51
  L 800.59 398.98
  A 0.57 0.55 54.8 0 0 801.37 399.13
  Q 843.35 369.14 884.78 339.28
  Q 886.81 337.81 888.07 335.65
  Q 921.24 278.73 954.31 221.75
  A 0.45 0.44 -57.3 0 1 954.96 221.60
  Q 1096.35 324.95 1237.57 428.52
  C 1240.25 430.49 1242.59 431.10 1243.75 434.71
  Z
  M 616.70 428.06
  L 624.11 428.81
  A 0.69 0.66 -81.8 0 0 624.82 428.26
  C 628.32 410.73 650.84 409.92 657.02 426.60
  Q 657.16 426.98 657.11 427.55
  C 656.87 430.22 663.82 428.35 665.20 428.05
  A 0.51 0.51 -12.1 0 0 665.59 427.45
  C 659.95 399.13 620.72 399.23 616.40 427.66
  A 0.36 0.33 -83.6 0 0 616.70 428.06
  Z
  M 696.68 428.06
  L 704.12 428.81
  A 0.68 0.65 -81.7 0 0 704.82 428.27
  C 706.52 419.76 712.96 414.42 721.68 414.79
  Q 733.04 415.27 737.64 428.36
  A 1.08 1.03 -13.2 0 0 738.78 429.03
  L 745.17 428.26
  A 0.60 0.59 -8.4 0 0 745.69 427.58
  C 740.81 399.24 701.33 399.18 696.31 427.56
  A 0.43 0.42 -82.4 0 0 696.68 428.06
  Z"
/>
<path fill="#f2f2f2" d="
  M 616.70 428.06
  A 0.36 0.33 -83.6 0 1 616.40 427.66
  C 620.72 399.23 659.95 399.13 665.59 427.45
  A 0.51 0.51 -12.1 0 1 665.20 428.05
  C 663.82 428.35 656.87 430.22 657.11 427.55
  Q 657.16 426.98 657.02 426.60
  C 650.84 409.92 628.32 410.73 624.82 428.26
  A 0.69 0.66 -81.8 0 1 624.11 428.81
  L 616.70 428.06
  Z"
/>
<path fill="#f2f2f2" d="
  M 696.68 428.06
  A 0.43 0.42 -82.4 0 1 696.31 427.56
  C 701.33 399.18 740.81 399.24 745.69 427.58
  A 0.60 0.59 -8.4 0 1 745.17 428.26
  L 738.78 429.03
  A 1.08 1.03 -13.2 0 1 737.64 428.36
  Q 733.04 415.27 721.68 414.79
  C 712.96 414.42 706.52 419.76 704.82 428.27
  A 0.68 0.65 -81.7 0 1 704.12 428.81
  L 696.68 428.06
  Z"
/>
</svg>
