<?xml version="1.0" encoding="UTF-8" standalone="no"?>
<!DOCTYPE svg PUBLIC "-//W3C//DTD SVG 1.1//EN" "http://www.w3.org/Graphics/SVG/1.1/DTD/svg11.dtd">
<svg xmlns="http://www.w3.org/2000/svg" version="1.1" viewBox="0 0 1471 354">
<g stroke-width="2.00" fill="none" stroke-linecap="butt">
<path stroke="#1d1d1d" vector-effect="non-scaling-stroke" d="
  M 830.00 112.96
  Q 822.05 111.39 814.04 112.75"
/>
<path stroke="#1d1d1d" vector-effect="non-scaling-stroke" d="
  M 831.51 113.16
  C 829.83 113.36 813.21 114.77 813.75 113.04"
/>
</g>
<path fill="#000000" d="
  M 87.86 163.31
  C 80.38 209.04 110.49 252.08 155.56 261.44
  C 168.45 264.12 168.00 272.26 168.00 284.27
  Q 168.00 310.68 168.00 337.40
  A 1.40 1.39 1.7 0 1 166.52 338.79
  Q 154.33 338.09 143.06 336.03
  A 0.60 0.60 -84.4 0 1 142.57 335.43
  Q 142.85 306.93 142.45 278.44
  C 142.42 276.01 142.80 274.25 141.35 272.09
  A 1.64 1.33 -2.2 0 0 140.59 271.52
  Q 122.82 264.98 106.51 251.70
  A 1.63 1.61 49.3 0 0 104.66 251.55
  L 50.98 282.62
  A 0.61 0.60 54.4 0 1 50.22 282.49
  Q 30.13 258.84 20.35 230.78
  A 1.01 1.01 -24.7 0 1 20.80 229.57
  L 74.07 198.95
  A 2.25 2.24 69.9 0 0 75.16 196.58
  Q 71.39 176.75 75.10 157.24
  A 2.18 2.18 20.3 0 0 74.05 154.96
  L 20.55 124.13
  A 0.64 0.63 -65.7 0 1 20.27 123.37
  Q 30.65 94.35 50.17 71.63
  A 0.62 0.61 35.3 0 1 50.94 71.50
  L 104.80 102.52
  A 1.55 1.52 39.6 0 0 106.57 102.37
  Q 121.85 89.36 140.72 82.49
  Q 142.71 81.77 142.67 79.65
  C 142.28 59.29 142.72 38.92 142.32 18.56
  A 0.58 0.57 84.8 0 1 142.80 17.98
  Q 155.06 15.93 167.03 15.28
  A 0.92 0.91 87.9 0 1 168.00 16.19
  Q 168.18 51.20 167.77 85.67
  C 167.74 88.77 166.97 90.89 163.69 91.24
  C 124.94 95.48 94.10 125.14 87.86 163.31
  Z"
/>
<path fill="#000000" d="
  M 249.04 175.50
  C 249.21 210.85 226.50 241.82 192.00 250.52
  C 150.55 260.97 109.73 236.76 99.25 195.50
  C 95.01 178.81 96.51 161.22 103.76 145.52
  C 113.60 124.21 133.44 106.79 157.43 102.68
  C 168.83 100.72 178.00 99.06 178.00 84.88
  Q 178.00 51.03 178.00 16.58
  A 1.33 1.30 -86.9 0 1 179.44 15.25
  L 202.12 17.77
  A 1.03 0.99 -87.8 0 1 203.01 18.77
  Q 203.65 47.31 203.02 76.11
  C 202.91 80.97 202.86 81.49 207.38 83.24
  Q 224.84 90.00 238.97 102.11
  A 2.12 2.12 50.3 0 0 241.41 102.34
  L 294.81 71.50
  A 0.62 0.61 -35.3 0 1 295.58 71.63
  Q 303.35 80.67 309.85 90.74
  A 1.04 1.03 58.7 0 1 309.50 92.19
  C 297.09 99.39 281.51 106.98 271.66 115.68
  Q 255.04 130.38 250.06 152.59
  C 248.45 159.76 249.00 167.83 249.04 175.50
  Z
  M 235.42 176.98
  A 62.55 62.55 0.0 0 0 172.87 114.43
  A 62.55 62.55 0.0 0 0 110.32 176.98
  A 62.55 62.55 0.0 0 0 172.87 239.53
  A 62.55 62.55 0.0 0 0 235.42 176.98
  Z"
/>
<path fill="#000000" d="
  M 1371.82 83.94
  L 1404.88 84.00
  A 1.12 1.11 -0.0 0 1 1406.00 85.11
  L 1406.00 165.73
  A 1.27 1.27 -90.0 0 1 1404.73 167.00
  Q 1399.90 167.00 1395.45 167.00
  C 1392.93 167.00 1391.46 167.44 1392.07 164.13
  Q 1392.46 162.00 1390.29 162.00
  L 1345.80 162.06
  A 0.60 0.51 0.5 0 0 1345.20 162.56
  L 1345.08 167.01
  A 1.98 1.70 -89.5 0 1 1343.38 168.95
  L 1332.23 169.00
  A 1.17 1.17 0.1 0 1 1331.06 167.83
  L 1331.00 85.01
  A 1.01 1.01 -89.6 0 1 1332.01 84.00
  L 1354.45 84.00
  A 2.75 2.30 -76.2 0 0 1356.70 82.35
  L 1359.31 76.46
  A 1.05 1.01 -77.4 0 0 1358.42 74.99
  L 1318.46 74.77
  A 1.49 1.47 -89.8 0 1 1317.00 73.28
  L 1317.00 63.24
  A 1.24 1.24 1.0 0 1 1318.24 62.00
  L 1343.46 62.00
  Q 1344.49 62.00 1343.76 61.26
  L 1333.28 50.63
  A 0.96 0.96 48.6 0 1 1333.37 49.21
  L 1344.28 40.46
  A 0.64 0.63 47.8 0 1 1345.13 40.51
  Q 1352.67 47.88 1358.65 55.38
  A 1.39 1.39 -28.9 0 1 1358.02 57.56
  Q 1354.12 58.95 1351.43 61.35
  Q 1351.03 61.71 1351.57 61.72
  L 1371.66 61.97
  A 1.37 1.25 -78.9 0 0 1372.88 61.07
  L 1380.39 40.68
  A 1.21 1.19 15.6 0 1 1381.75 39.93
  Q 1389.13 41.38 1395.75 43.00
  Q 1399.00 43.80 1397.75 47.11
  A 1.49 1.10 -10.5 0 1 1397.12 47.78
  C 1393.76 49.61 1389.40 57.11 1387.29 60.60
  Q 1386.44 62.00 1388.08 62.00
  L 1419.66 62.00
  A 1.34 1.34 89.8 0 1 1421.00 63.34
  L 1421.00 73.87
  A 1.07 1.06 90.0 0 1 1419.94 74.94
  L 1378.82 75.00
  A 3.08 3.05 20.8 0 0 1376.54 76.01
  Q 1373.71 79.16 1371.53 83.49
  A 0.32 0.31 12.8 0 0 1371.82 83.94
  Z
  M 1392.01 97.88
  A 0.88 0.88 0.0 0 0 1391.13 97.00
  L 1345.89 97.00
  A 0.88 0.88 0.0 0 0 1345.01 97.88
  L 1345.01 105.12
  A 0.88 0.88 0.0 0 0 1345.89 106.00
  L 1391.13 106.00
  A 0.88 0.88 0.0 0 0 1392.01 105.12
  L 1392.01 97.88
  Z
  M 1392.00 119.60
  A 0.60 0.60 0.0 0 0 1391.40 119.00
  L 1345.60 119.00
  A 0.60 0.60 0.0 0 0 1345.00 119.60
  L 1345.00 126.40
  A 0.60 0.60 0.0 0 0 1345.60 127.00
  L 1391.40 127.00
  A 0.60 0.60 0.0 0 0 1392.00 126.40
  L 1392.00 119.60
  Z
  M 1391.99 140.70
  A 0.70 0.70 0.0 0 0 1391.29 140.00
  L 1345.69 140.00
  A 0.70 0.70 0.0 0 0 1344.99 140.70
  L 1344.99 148.30
  A 0.70 0.70 0.0 0 0 1345.69 149.00
  L 1391.29 149.00
  A 0.70 0.70 0.0 0 0 1391.99 148.30
  L 1391.99 140.70
  Z"
/>
<path fill="#000000" d="
  M 441.81 161.35
  L 452.26 159.00
  Q 454.16 158.57 452.30 157.93
  Q 448.47 156.61 443.95 156.50
  A 1.29 1.29 -82.7 0 1 442.73 154.92
  Q 445.66 142.19 446.25 129.50
  C 446.44 125.47 448.17 126.37 450.96 126.88
  C 453.78 127.39 465.67 128.92 464.92 133.08
  A 0.97 0.80 -8.7 0 1 464.34 133.73
  Q 462.66 134.40 462.50 135.75
  Q 461.44 144.70 459.27 153.45
  C 457.72 159.66 464.98 152.45 465.10 156.94
  C 465.21 160.86 465.88 164.67 465.99 168.54
  A 1.27 1.27 -10.7 0 1 465.14 169.78
  Q 439.14 178.76 413.24 185.79
  C 411.46 186.27 410.43 186.04 409.90 188.34
  Q 409.40 190.54 407.28 189.77
  C 403.89 188.53 403.81 186.78 402.63 183.01
  Q 400.95 177.62 399.24 172.23
  A 0.99 0.98 -12.6 0 1 400.05 170.96
  Q 411.49 169.35 422.35 166.66
  A 2.16 2.12 -7.3 0 0 423.99 164.58
  L 423.82 125.70
  A 0.53 0.52 -89.4 0 0 423.31 125.17
  L 402.41 125.01
  A 1.37 1.28 0.6 0 1 401.05 123.71
  L 401.16 110.68
  A 0.52 0.52 -89.4 0 1 401.68 110.17
  L 422.68 110.02
  A 1.28 1.23 -0.2 0 0 423.95 108.79
  L 424.00 96.71
  A 0.65 0.64 3.0 0 0 423.42 96.07
  Q 420.17 95.72 417.28 95.87
  C 413.40 96.07 410.42 99.58 408.05 102.30
  Q 405.93 104.74 404.20 102.77
  C 401.21 99.34 397.60 96.23 394.57 92.97
  A 0.69 0.69 46.2 0 1 394.59 92.01
  C 409.16 77.80 421.05 60.97 426.36 41.46
  A 0.96 0.96 -76.3 0 1 427.49 40.77
  Q 434.14 42.18 440.49 44.11
  C 442.58 44.75 443.32 46.37 442.73 48.35
  A 1.02 0.81 -3.8 0 1 442.08 48.94
  Q 439.97 49.56 442.13 50.83
  Q 455.47 58.66 467.00 69.37
  Q 468.62 70.86 467.54 72.71
  L 460.76 84.32
  A 0.41 0.38 36.8 0 1 460.14 84.39
  L 436.70 62.43
  A 1.06 1.03 -57.2 0 0 435.03 62.81
  C 432.73 68.21 429.01 76.22 424.55 79.82
  Q 423.09 81.00 424.97 81.00
  L 452.08 81.00
  Q 453.94 81.00 453.95 82.84
  L 453.99 94.64
  A 1.37 1.35 -0.2 0 1 452.62 96.00
  L 441.66 96.00
  A 0.66 0.66 0.1 0 0 441.00 96.66
  L 441.00 109.01
  A 0.95 0.93 0.6 0 0 441.93 109.94
  L 460.15 110.27
  A 0.80 0.79 0.4 0 1 460.94 111.06
  L 461.00 123.53
  A 1.54 1.51 -89.5 0 1 459.46 125.07
  L 442.92 124.75
  A 1.71 1.67 1.5 0 0 441.17 126.37
  Q 440.63 143.32 441.29 160.93
  A 0.44 0.43 82.9 0 0 441.81 161.35
  Z"
/>
<path fill="#000000" d="
  M 1161.81 156.04
  Q 1162.92 156.25 1165.35 155.35
  A 1.22 1.20 76.3 0 1 1166.96 156.35
  L 1168.42 168.21
  A 1.37 1.32 77.2 0 1 1167.55 169.65
  Q 1141.84 178.50 1113.21 186.44
  A 1.16 1.13 -87.8 0 0 1112.44 187.17
  C 1110.71 192.09 1107.02 189.22 1105.89 186.08
  Q 1103.43 179.20 1101.21 172.13
  A 0.83 0.82 -13.9 0 1 1101.86 171.07
  L 1124.39 166.84
  A 1.68 1.67 85.0 0 0 1125.76 165.20
  L 1125.99 126.44
  A 1.47 1.43 0.2 0 0 1124.52 125.00
  L 1104.39 124.95
  A 1.35 1.31 0.4 0 1 1103.05 123.63
  L 1103.16 110.68
  A 0.53 0.52 -0.0 0 1 1103.68 110.17
  L 1125.10 110.01
  A 0.91 0.89 -0.3 0 0 1126.00 109.12
  L 1126.00 97.13
  A 1.14 1.13 -1.9 0 0 1124.79 96.00
  C 1121.05 96.24 1117.94 94.48 1114.85 97.60
  Q 1111.86 100.61 1108.71 103.53
  A 1.05 1.02 -44.4 0 1 1107.27 103.54
  L 1096.46 92.84
  A 0.67 0.65 -43.5 0 1 1096.50 91.87
  C 1111.18 78.72 1123.30 60.63 1128.26 41.50
  A 1.04 1.00 -75.5 0 1 1129.49 40.75
  L 1143.34 44.30
  A 1.30 1.27 79.8 0 1 1144.11 44.85
  Q 1145.12 46.40 1144.80 48.20
  A 0.99 0.84 -9.1 0 1 1144.23 48.87
  C 1141.26 50.18 1144.26 51.07 1145.29 51.64
  Q 1158.62 59.04 1169.45 69.82
  A 2.01 1.93 38.0 0 1 1169.79 72.21
  L 1162.58 84.51
  A 0.38 0.38 39.1 0 1 1161.97 84.57
  Q 1151.43 73.41 1138.48 62.29
  A 0.78 0.77 -58.1 0 0 1137.26 62.58
  Q 1133.18 72.24 1127.65 79.07
  Q 1126.08 81.00 1128.57 81.00
  L 1154.18 81.00
  A 1.82 1.82 -89.7 0 1 1156.00 82.82
  L 1156.00 94.97
  A 1.03 1.03 -89.8 0 1 1154.97 96.00
  L 1144.09 96.00
  A 1.09 1.09 -89.9 0 0 1143.00 97.09
  L 1143.00 108.77
  A 1.17 1.16 90.0 0 0 1144.16 109.94
  L 1161.76 110.00
  A 1.08 1.08 -2.3 0 1 1162.84 110.99
  Q 1163.32 117.60 1162.77 124.25
  A 1.08 1.03 2.3 0 1 1161.70 125.19
  L 1144.05 125.17
  A 1.10 1.05 90.0 0 0 1143.00 126.27
  L 1143.00 160.49
  A 0.72 0.72 -3.5 0 0 1143.81 161.20
  Q 1149.79 160.40 1154.52 158.83
  Q 1155.28 158.57 1154.58 158.19
  C 1151.45 156.53 1148.13 157.28 1144.92 155.98
  A 0.51 0.51 -72.8 0 1 1144.61 155.39
  Q 1147.63 141.80 1148.58 128.33
  Q 1148.74 126.05 1150.99 126.45
  C 1152.96 126.81 1172.56 129.54 1165.48 134.54
  A 1.24 1.23 78.5 0 0 1164.98 135.30
  L 1161.00 154.77
  A 1.08 1.05 -78.4 0 0 1161.81 156.04
  Z"
/>
<path fill="#000000" d="
  M 488.55 73.79
  Q 491.40 74.33 494.10 73.85
  A 1.10 1.09 85.0 0 0 495.00 72.77
  L 495.06 43.03
  A 1.04 1.03 -0.9 0 1 496.07 42.00
  C 497.80 41.96 516.83 40.62 512.05 46.82
  A 3.88 3.84 -26.3 0 0 511.25 49.14
  L 510.99 72.97
  A 1.02 1.02 -89.7 0 0 512.01 74.00
  L 535.67 74.00
  A 1.33 1.33 -0.3 0 1 537.00 75.33
  L 537.00 87.83
  A 1.11 1.11 -0.3 0 1 535.90 88.94
  L 512.10 89.00
  A 1.10 1.10 -0.2 0 0 511.00 90.10
  L 511.00 109.20
  Q 511.00 112.00 513.80 112.00
  L 545.44 112.00
  A 0.56 0.56 -89.8 0 1 546.00 112.56
  L 546.00 126.22
  A 0.81 0.79 0.0 0 1 545.19 127.01
  L 513.90 127.24
  A 0.97 0.95 81.1 0 0 513.00 128.49
  Q 521.52 156.51 545.93 172.33
  C 547.52 173.36 550.13 174.13 548.10 176.51
  C 544.91 180.25 542.12 184.49 539.18 188.45
  A 1.10 1.09 -55.1 0 1 537.70 188.72
  Q 517.26 175.54 508.31 152.97
  C 507.70 151.41 507.07 148.80 506.12 147.09
  Q 505.26 145.54 504.80 147.25
  C 499.14 168.64 482.99 182.10 463.90 191.58
  A 0.84 0.81 -31.1 0 1 462.87 191.35
  L 453.24 178.45
  A 0.88 0.86 -29.8 0 1 453.61 177.15
  C 474.91 167.77 491.63 152.44 493.57 127.86
  A 0.81 0.79 2.6 0 0 492.77 127.00
  L 463.90 126.69
  A 0.92 0.91 -89.7 0 1 463.00 125.77
  L 463.00 113.26
  A 1.26 1.25 -90.0 0 1 464.25 112.00
  L 493.98 112.00
  A 1.02 1.02 89.6 0 0 495.00 110.98
  L 495.00 90.09
  A 1.09 1.09 89.8 0 0 493.91 89.00
  L 485.23 89.00
  A 1.81 1.80 -80.1 0 0 483.53 90.20
  Q 479.64 101.02 474.01 110.32
  A 0.59 0.58 27.0 0 1 473.28 110.55
  Q 466.51 107.55 460.68 103.68
  A 1.43 1.43 -57.2 0 1 460.26 101.73
  C 467.81 89.68 472.63 72.08 474.22 57.25
  Q 474.42 55.46 474.95 53.90
  A 0.61 0.60 -72.2 0 1 475.70 53.51
  C 478.67 54.41 491.84 57.94 492.70 60.13
  Q 493.38 61.86 490.91 63.80
  A 2.35 1.56 -21.1 0 0 490.11 64.93
  L 488.14 73.19
  A 0.51 0.49 12.0 0 0 488.55 73.79
  Z"
/>
<path fill="#000000" d="
  M 958.81 79.94
  L 1037.63 80.00
  A 0.37 0.37 -90.0 0 1 1038.00 80.37
  L 1038.00 94.31
  A 0.69 0.69 0.3 0 1 1037.31 95.00
  L 957.09 95.00
  A 1.09 1.09 -0.0 0 1 956.00 93.91
  L 956.00 83.73
  Q 956.00 82.81 955.31 83.42
  C 949.99 88.12 943.05 95.41 936.75 98.53
  A 0.99 0.96 56.3 0 1 935.58 98.28
  L 926.72 88.00
  A 1.54 1.51 50.7 0 1 926.92 85.81
  Q 948.68 68.72 960.07 42.80
  A 1.42 1.41 22.3 0 1 961.88 42.05
  Q 967.38 44.17 973.06 46.19
  Q 977.23 47.67 975.66 51.23
  A 1.97 1.40 -13.1 0 1 975.01 51.96
  Q 972.90 53.37 971.61 55.49
  Q 970.69 57.00 972.46 57.00
  L 1058.31 57.18
  A 0.54 0.52 0.0 0 1 1058.84 57.69
  L 1058.98 71.09
  A 0.93 0.90 -0.3 0 1 1058.05 72.00
  L 964.31 72.00
  A 1.99 1.82 14.6 0 0 962.67 72.87
  L 958.55 79.50
  Q 958.28 79.94 958.81 79.94
  Z"
/>
<path fill="#000000" d="
  M 1215.29 129.02
  C 1220.51 147.20 1233.21 163.44 1249.73 173.18
  Q 1251.52 174.24 1250.32 175.87
  L 1241.09 188.39
  A 1.24 1.20 35.6 0 1 1239.42 188.64
  Q 1216.48 172.99 1208.38 147.67
  Q 1207.50 144.92 1206.75 147.70
  C 1201.03 168.97 1184.83 182.48 1165.43 191.73
  A 0.59 0.57 58.9 0 1 1164.71 191.54
  L 1155.34 178.64
  A 1.01 0.99 60.1 0 1 1155.73 177.13
  C 1177.54 167.77 1193.25 152.30 1195.81 127.89
  A 0.76 0.75 -86.5 0 0 1195.08 127.05
  L 1166.57 126.75
  A 1.58 1.54 0.6 0 1 1165.01 125.20
  L 1165.05 112.94
  A 0.97 0.95 0.3 0 1 1166.02 112.00
  L 1196.05 111.94
  A 0.95 0.95 0.1 0 0 1197.00 110.99
  L 1197.00 89.88
  A 0.88 0.86 89.7 0 0 1196.13 89.00
  L 1187.00 89.05
  A 1.14 1.11 -78.7 0 0 1185.98 89.75
  Q 1181.18 101.28 1176.24 110.24
  A 0.81 0.76 -61.1 0 1 1175.19 110.58
  L 1162.72 103.77
  A 1.09 1.03 -61.5 0 1 1162.34 102.33
  Q 1171.21 85.98 1174.57 67.47
  Q 1175.81 60.61 1176.97 53.94
  A 0.64 0.64 13.7 0 1 1177.80 53.44
  Q 1184.60 55.67 1190.75 57.75
  C 1193.25 58.59 1194.50 58.65 1194.96 61.16
  A 1.17 1.17 -25.2 0 1 1194.57 62.24
  C 1191.34 64.99 1191.44 68.58 1190.13 72.12
  A 1.40 1.40 -79.9 0 0 1191.44 74.00
  L 1195.46 74.00
  A 1.56 1.54 90.0 0 0 1197.00 72.44
  L 1197.18 42.68
  A 0.57 0.54 -2.9 0 1 1197.69 42.14
  Q 1205.38 41.51 1213.01 42.75
  Q 1215.60 43.17 1214.49 45.55
  C 1212.19 50.47 1213.26 56.13 1213.12 60.26
  Q 1212.90 66.63 1213.00 73.01
  A 1.01 1.00 89.4 0 0 1214.00 74.00
  L 1238.34 74.00
  A 0.66 0.66 0.1 0 1 1239.00 74.66
  L 1239.00 88.23
  A 0.77 0.77 89.5 0 1 1238.23 89.00
  L 1213.81 89.00
  A 0.81 0.81 -89.9 0 0 1213.00 89.81
  L 1213.00 109.28
  Q 1213.00 112.00 1215.72 112.00
  L 1246.73 112.00
  A 1.27 1.27 88.7 0 1 1248.00 113.27
  L 1248.00 126.34
  A 0.66 0.66 -0.1 0 1 1247.34 127.00
  L 1216.81 127.00
  Q 1214.71 127.00 1215.29 129.02
  Z"
/>
<path fill="#000000" d="
  M 830.00 112.96
  Q 822.05 111.39 814.04 112.75
  Q 813.97 97.21 814.00 81.67
  C 814.01 76.23 813.78 76.00 808.34 76.00
  Q 788.90 76.00 768.85 76.00
  A 0.85 0.85 0.2 0 0 768.00 76.85
  L 768.00 101.15
  A 0.85 0.85 -0.0 0 1 767.15 102.00
  L 752.87 102.00
  A 0.87 0.87 0.0 0 1 752.00 101.13
  L 752.00 66.87
  A 0.87 0.87 0.0 0 1 752.87 66.00
  L 811.57 66.00
  A 2.05 2.04 -83.4 0 0 813.56 64.42
  Q 814.10 62.08 813.52 58.98
  A 0.89 0.87 84.9 0 0 812.66 58.25
  L 763.80 58.01
  A 0.80 0.79 0.0 0 1 763.00 57.22
  L 763.00 45.66
  A 0.66 0.66 -89.5 0 1 763.66 45.00
  L 880.34 45.00
  A 0.66 0.66 89.5 0 1 881.00 45.66
  L 881.00 57.19
  A 0.81 0.81 -89.9 0 1 880.19 58.00
  L 830.66 58.00
  A 0.66 0.66 90.0 0 0 830.00 58.66
  L 830.00 65.34
  A 0.66 0.66 90.0 0 0 830.66 66.00
  L 891.68 66.00
  A 1.32 1.32 0.2 0 1 893.00 67.32
  L 893.00 97.87
  A 1.07 1.06 89.7 0 1 891.95 98.94
  L 877.99 99.00
  A 0.99 0.99 0.5 0 1 877.00 98.01
  L 877.00 77.26
  A 1.26 1.26 89.6 0 0 875.74 76.00
  L 830.99 76.00
  A 0.99 0.99 -0.5 0 0 830.00 76.99
  L 830.00 112.96
  Z"
/>
<path fill="#000000" d="
  M 1294.96 49.71
  C 1301.91 56.03 1308.66 63.10 1314.59 70.30
  A 1.62 1.54 51.3 0 1 1314.40 72.55
  L 1302.67 81.70
  A 0.92 0.86 52.6 0 1 1301.42 81.49
  Q 1291.68 68.56 1279.58 56.96
  A 0.88 0.88 46.9 0 1 1279.62 55.65
  C 1282.61 53.15 1285.77 50.72 1288.55 47.93
  C 1290.98 45.50 1292.79 47.74 1294.96 49.71
  Z"
/>
<path fill="#000000" d="
  M 609.92 127.15
  Q 609.95 125.28 608.82 126.77
  Q 598.93 139.70 585.05 147.82
  A 1.52 1.50 -31.0 0 1 582.99 147.32
  L 575.29 134.73
  A 1.35 1.32 -31.2 0 1 575.76 132.89
  C 596.54 120.56 612.56 102.68 619.93 79.56
  Q 620.99 76.23 621.00 72.73
  A 0.73 0.73 0.3 0 0 620.27 72.00
  L 579.67 72.00
  A 0.67 0.67 89.8 0 1 579.00 71.33
  L 579.06 55.79
  A 0.79 0.79 -0.0 0 1 579.85 55.00
  L 716.32 55.19
  A 0.51 0.50 0.0 0 1 716.83 55.69
  L 716.98 71.09
  A 0.93 0.90 -0.3 0 1 716.05 72.00
  L 640.11 72.00
  A 0.90 0.89 5.5 0 0 639.23 72.72
  Q 636.16 88.77 627.21 104.37
  A 0.42 0.42 -74.8 0 0 627.57 105.00
  L 701.36 105.00
  A 0.64 0.64 -89.8 0 1 702.00 105.64
  L 701.82 185.31
  A 0.54 0.52 -90.0 0 1 701.31 185.84
  L 686.81 185.95
  A 0.55 0.52 -1.1 0 1 686.25 185.44
  L 686.07 177.06
  A 1.08 1.00 89.4 0 0 685.07 176.00
  L 628.09 176.00
  A 1.09 1.09 0.3 0 0 627.00 177.09
  L 627.00 184.86
  A 1.08 1.06 -90.0 0 1 625.94 185.94
  L 611.71 186.00
  A 0.72 0.71 90.0 0 1 611.00 185.28
  Q 610.98 168.19 610.63 150.95
  C 610.50 144.49 609.80 135.03 609.92 127.15
  Z
  M 685.98 120.56
  A 0.56 0.56 0.0 0 0 685.42 120.00
  L 627.56 120.00
  A 0.56 0.56 0.0 0 0 627.00 120.56
  L 627.00 160.42
  A 0.56 0.56 0.0 0 0 627.56 160.98
  L 685.42 160.98
  A 0.56 0.56 0.0 0 0 685.98 160.42
  L 685.98 120.56
  Z"
/>
<rect fill="#000000" x="772.00" y="82.00" width="39.00" height="10.00" rx="0.64"/>
<rect fill="#000000" x="832.99" y="82.00" width="41.00" height="10.00" rx="0.75"/>
<rect fill="#000000" x="772.01" y="97.00" width="39.00" height="10.00" rx="0.80"/>
<rect fill="#000000" x="832.99" y="97.00" width="41.00" height="10.00" rx="0.83"/>
<path fill="#000000" d="
  M 1004.81 117.44
  C 1006.27 118.33 1022.24 127.77 1015.54 129.91
  A 5.03 3.66 -70.4 0 0 1013.52 131.29
  L 999.64 147.00
  A 1.61 1.58 -48.2 0 0 999.75 149.24
  L 1020.58 167.94
  A 0.59 0.56 -50.9 0 1 1020.64 168.71
  L 1010.90 181.53
  A 0.95 0.94 -49.9 0 1 1009.51 181.65
  L 987.92 161.80
  A 1.83 1.80 -43.6 0 0 985.53 161.76
  Q 964.42 179.42 937.73 188.76
  A 1.00 1.00 -21.4 0 1 936.49 188.22
  L 930.13 173.76
  A 1.11 1.11 -22.1 0 1 930.76 172.27
  C 944.32 167.19 959.68 160.64 970.93 151.75
  Q 972.70 150.35 970.80 149.14
  Q 959.05 141.59 946.49 135.75
  A 1.08 1.08 -61.2 0 1 946.04 134.20
  Q 949.71 128.45 954.86 122.74
  A 0.97 0.96 -56.7 0 1 955.99 122.50
  Q 971.00 129.25 984.07 137.94
  A 1.39 1.39 -52.2 0 0 985.89 137.71
  Q 994.21 128.35 1000.87 117.54
  Q 1001.82 116.00 1000.01 116.00
  L 932.34 116.00
  A 1.34 1.34 0.4 0 1 931.00 114.66
  L 931.00 102.24
  A 1.24 1.24 0.9 0 1 932.24 101.00
  L 1044.32 101.00
  A 0.68 0.68 0.1 0 1 1045.00 101.68
  Q 1045.00 117.63 1045.00 133.50
  C 1045.00 145.65 1045.73 155.52 1051.84 165.41
  Q 1053.33 167.82 1053.81 165.08
  L 1056.06 152.10
  A 0.58 0.55 -70.9 0 1 1056.88 151.68
  L 1070.70 159.32
  A 2.07 2.06 23.3 0 1 1071.67 161.75
  C 1068.97 170.41 1065.20 196.73 1049.10 185.38
  C 1027.49 170.16 1029.10 141.87 1028.75 117.85
  A 1.66 1.65 1.1 0 0 1027.18 116.22
  Q 1016.50 115.64 1005.25 116.25
  Q 1003.06 116.37 1004.81 117.44
  Z"
/>
<path fill="#000000" d="
  M 240.80 251.38
  A 1.49 1.48 39.2 0 0 239.07 251.55
  Q 223.49 265.39 203.86 271.88
  A 0.59 0.59 -8.3 0 0 203.45 272.43
  C 203.07 287.76 202.98 302.80 203.24 318.01
  Q 203.38 326.02 202.92 334.74
  A 1.62 1.62 86.7 0 1 201.58 336.25
  Q 191.19 338.00 179.03 338.63
  A 0.98 0.98 -1.4 0 1 178.00 337.65
  Q 178.00 306.38 177.94 275.75
  C 177.92 265.03 184.97 262.66 193.78 260.62
  C 227.93 252.71 253.31 223.23 258.22 189.05
  C 259.51 180.09 258.25 167.59 259.25 159.75
  C 261.89 139.03 272.17 126.43 289.48 115.67
  Q 301.23 108.36 314.11 101.57
  A 1.78 1.78 -27.5 0 1 316.52 102.33
  Q 321.20 111.61 325.57 123.09
  A 1.05 1.04 -25.7 0 1 325.12 124.36
  L 272.22 154.98
  Q 270.75 155.83 270.98 157.53
  Q 273.77 178.02 270.94 196.89
  A 2.20 2.19 19.4 0 0 272.01 199.11
  L 325.16 229.75
  A 0.99 0.98 -65.3 0 1 325.60 230.95
  Q 315.38 259.02 295.88 282.19
  A 0.99 0.99 34.8 0 1 294.63 282.41
  L 240.80 251.38
  Z"
/>
<path fill="#000000" d="
  M 1297.94 158.34
  L 1298.00 122.88
  A 0.88 0.88 -0.1 0 0 1297.12 122.00
  L 1277.87 122.00
  A 0.87 0.87 89.9 0 1 1277.00 121.13
  L 1277.00 107.85
  A 0.85 0.85 89.9 0 1 1277.85 107.00
  L 1313.50 107.00
  A 0.50 0.50 0.0 0 1 1314.00 107.50
  L 1314.00 159.06
  Q 1314.00 160.86 1315.37 162.03
  C 1326.72 171.68 1336.43 172.70 1352.56 172.85
  Q 1387.40 173.16 1423.02 173.00
  A 0.72 0.71 0.7 0 1 1423.75 173.74
  Q 1423.59 178.46 1422.59 183.05
  C 1421.69 187.18 1423.41 187.98 1417.94 188.00
  Q 1382.14 188.15 1346.34 187.78
  C 1331.01 187.61 1317.88 184.02 1306.94 173.07
  Q 1305.50 171.62 1304.06 173.07
  Q 1294.85 182.30 1283.94 188.74
  A 0.53 0.52 -31.6 0 1 1283.23 188.58
  Q 1279.32 182.43 1275.87 174.50
  A 1.69 1.64 63.6 0 1 1276.55 172.37
  L 1296.19 161.24
  Q 1297.94 160.25 1297.94 158.34
  Z"
/>
<path fill="#39393a" d="
  M 830.00 112.96
  L 831.51 113.16
  C 829.83 113.36 813.21 114.77 813.75 113.04
  Q 813.98 112.98 814.04 112.75
  Q 822.05 111.39 830.00 112.96
  Z"
/>
<path fill="#000000" d="
  M 813.75 113.04
  C 813.21 114.77 829.83 113.36 831.51 113.16
  L 875.34 113.00
  A 0.67 0.66 90.0 0 1 876.00 113.67
  L 876.00 166.60
  A 1.40 1.40 -89.7 0 1 874.60 168.00
  L 830.10 168.00
  A 1.09 1.08 -87.7 0 0 829.02 169.00
  Q 828.78 171.99 829.88 175.13
  A 1.31 1.30 80.2 0 0 831.11 176.00
  Q 852.19 176.04 872.26 175.95
  C 879.86 175.91 881.15 168.00 880.98 162.01
  A 0.43 0.42 3.9 0 1 881.48 161.58
  L 896.32 164.24
  A 2.05 2.00 -86.5 0 1 897.97 166.15
  C 898.42 175.29 894.68 185.12 885.94 188.94
  C 878.20 192.31 866.50 190.55 857.91 190.83
  Q 841.74 191.36 825.59 190.50
  C 818.17 190.11 813.51 187.93 813.07 180.07
  Q 812.66 172.55 813.00 170.75
  C 813.63 167.45 811.63 168.01 809.52 167.99
  Q 796.61 167.87 783.69 168.17
  A 0.56 0.52 -0.6 0 0 783.15 168.68
  L 783.04 177.63
  A 1.34 1.26 -89.8 0 1 781.79 178.95
  L 769.68 179.00
  A 0.69 0.68 90.0 0 1 769.00 178.31
  L 769.00 113.68
  A 0.68 0.68 -89.9 0 1 769.68 113.00
  L 813.75 113.04
  Z
  M 861.9948 127.7488
  A 0.76 0.76 0.0 0 0 861.2361 126.9875
  L 829.7762 126.9326
  A 0.76 0.76 0.0 0 0 829.0148 127.6912
  L 829.0052 133.2112
  A 0.76 0.76 0.0 0 0 829.7639 133.9725
  L 861.2238 134.0274
  A 0.76 0.76 0.0 0 0 861.9852 133.2688
  L 861.9948 127.7488
  Z
  M 812.98 127.91
  A 0.91 0.91 0.0 0 0 812.07 127.00
  L 783.89 127.00
  A 0.91 0.91 0.0 0 0 782.98 127.91
  L 782.98 133.09
  A 0.91 0.91 0.0 0 0 783.89 134.00
  L 812.07 134.00
  A 0.91 0.91 0.0 0 0 812.98 133.09
  L 812.98 127.91
  Z
  M 812.99 147.73
  A 0.73 0.73 0.0 0 0 812.26 147.00
  L 783.72 147.00
  A 0.73 0.73 0.0 0 0 782.99 147.73
  L 782.99 154.27
  A 0.73 0.73 0.0 0 0 783.72 155.00
  L 812.26 155.00
  A 0.73 0.73 0.0 0 0 812.99 154.27
  L 812.99 147.73
  Z
  M 861.99 147.70
  A 0.70 0.70 0.0 0 0 861.29 147.00
  L 829.69 147.00
  A 0.70 0.70 0.0 0 0 828.99 147.70
  L 828.99 154.30
  A 0.70 0.70 0.0 0 0 829.69 155.00
  L 861.29 155.00
  A 0.70 0.70 0.0 0 0 861.99 154.30
  L 861.99 147.70
  Z"
/>
<path fill="#000000" d="
  M 415.41 131.25
  C 417.64 132.70 421.70 151.06 422.37 154.45
  C 422.97 157.51 424.27 159.43 420.25 160.75
  Q 414.63 162.59 408.04 164.44
  A 0.49 0.48 77.3 0 1 407.43 164.05
  Q 405.01 149.70 400.46 136.89
  A 1.21 1.21 -18.9 0 1 401.22 135.34
  L 414.21 131.10
  A 1.42 1.40 -37.4 0 1 415.41 131.25
  Z"
/>
<path fill="#000000" d="
  M 1124.81 157.83
  Q 1125.10 159.89 1123.12 160.54
  Q 1117.72 162.31 1111.93 163.77
  C 1107.66 164.85 1109.51 164.69 1108.84 160.78
  Q 1106.76 148.68 1102.91 136.72
  A 1.22 1.19 72.3 0 1 1103.68 135.19
  L 1116.33 131.23
  A 1.41 1.38 70.1 0 1 1118.04 132.06
  Q 1122.94 144.39 1124.81 157.83
  Z"
/>
<path fill="#000000" d="
  M 402.02 272.44
  Q 402.10 273.37 402.77 272.72
  Q 415.88 259.87 427.81 246.81
  C 432.11 242.10 436.25 244.20 441.62 244.00
  Q 443.39 243.93 442.15 245.22
  L 417.80 270.58
  A 2.07 2.00 50.6 0 0 417.59 273.11
  L 442.94 311.82
  A 0.62 0.62 69.8 0 1 442.50 312.78
  C 439.72 313.10 436.89 313.00 434.04 313.21
  C 431.15 313.41 430.74 311.57 429.47 309.57
  Q 419.64 294.12 409.74 279.71
  A 1.19 1.18 -43.1 0 0 407.83 279.65
  C 405.13 283.10 400.68 286.30 401.00 291.00
  Q 401.32 295.69 400.83 312.06
  A 0.63 0.61 86.6 0 1 400.32 312.65
  Q 396.38 313.28 391.33 312.91
  A 1.43 1.42 1.9 0 1 390.00 311.49
  L 390.00 244.87
  A 0.87 0.87 0.0 0 1 390.87 244.00
  L 399.86 244.00
  A 1.07 1.07 -89.5 0 1 400.93 245.09
  Q 400.76 258.91 402.02 272.44
  Z"
/>
<path fill="#000000" d="
  M 677.99 273.58
  C 678.63 273.02 678.82 271.77 679.60 271.02
  C 686.50 264.44 700.71 265.08 705.30 274.07
  Q 706.93 277.27 706.97 286.31
  Q 707.04 299.21 707.00 312.33
  A 0.67 0.67 89.9 0 1 706.33 313.00
  L 697.66 313.00
  A 0.67 0.66 90.0 0 1 697.00 312.33
  Q 697.04 296.97 696.95 281.90
  Q 696.93 278.76 695.68 277.07
  C 689.70 269.02 680.53 278.95 678.20 284.48
  Q 677.01 287.31 677.03 292.20
  Q 677.09 302.14 676.82 312.06
  A 0.62 0.62 85.5 0 1 676.31 312.66
  Q 672.96 313.26 668.08 312.86
  A 1.18 1.17 2.4 0 1 667.00 311.69
  L 667.00 244.85
  A 0.85 0.85 -0.0 0 1 667.85 244.00
  L 676.13 244.00
  A 0.87 0.87 0.0 0 1 677.00 244.87
  L 677.00 273.12
  Q 677.00 274.43 677.99 273.58
  Z"
/>
<path fill="#000000" d="
  M 782.81 303.94
  L 816.72 304.00
  A 1.28 1.28 0.0 0 1 818.00 305.28
  L 818.00 312.32
  A 0.68 0.68 -89.9 0 1 817.32 313.00
  L 771.77 313.00
  A 0.71 0.70 0.0 0 1 771.06 312.30
  L 771.00 244.66
  A 0.67 0.66 0.0 0 1 771.67 244.00
  L 814.73 244.00
  A 1.26 1.23 0.2 0 1 815.99 245.24
  L 815.95 252.22
  A 0.82 0.79 -0.0 0 1 815.13 253.01
  L 782.68 253.18
  A 0.52 0.52 0.0 0 0 782.16 253.70
  L 782.16 271.32
  A 0.54 0.50 0.6 0 0 782.69 271.82
  Q 795.98 272.13 809.27 272.01
  C 813.44 271.97 812.91 272.08 813.06 275.94
  Q 813.14 278.08 812.78 280.19
  A 0.63 0.61 -85.4 0 1 812.19 280.71
  L 783.04 280.98
  A 1.01 0.94 -0.9 0 0 782.04 281.94
  L 782.29 303.44
  A 0.52 0.50 0.0 0 0 782.81 303.94
  Z"
/>
<rect fill="#000000" x="828.00" y="243.99" width="10.00" height="69.00" rx="0.85"/>
<path fill="#000000" d="
  M 1153.75 283.06
  L 1137.64 283.00
  A 0.65 0.64 -90.0 0 0 1137.00 283.65
  L 1137.00 310.74
  A 1.26 1.26 0.0 0 1 1135.74 312.00
  L 1126.99 312.00
  A 0.99 0.99 0.0 0 1 1126.00 311.01
  L 1126.00 244.66
  A 0.66 0.66 -0.1 0 1 1126.66 244.00
  Q 1138.74 244.00 1150.62 244.00
  Q 1162.29 244.00 1164.85 244.62
  C 1173.38 246.68 1178.29 254.05 1178.58 262.69
  C 1178.89 271.67 1175.84 278.80 1166.78 282.00
  A 0.65 0.64 -23.4 0 0 1166.42 282.90
  L 1180.42 310.83
  A 0.76 0.72 76.6 0 1 1179.79 311.92
  L 1169.80 311.75
  A 0.91 0.71 74.9 0 1 1169.11 311.23
  L 1156.18 284.55
  Q 1155.46 283.07 1153.75 283.06
  Z
  M 1166.39 269.04
  C 1169.15 262.12 1165.82 252.35 1157.00 252.75
  Q 1148.13 253.15 1137.92 252.98
  A 0.88 0.86 0.3 0 0 1137.02 253.85
  L 1137.17 273.30
  A 0.53 0.53 1.1 0 0 1137.68 273.83
  Q 1147.47 274.12 1157.27 274.01
  C 1161.94 273.96 1164.41 273.98 1166.39 269.04
  Z"
/>
<rect fill="#000000" x="1257.00" y="243.99" width="10.00" height="69.00" rx="0.82"/>
<rect fill="#000000" x="-5.00" y="-5.50" transform="translate(604.00,250.50) rotate(-0.3)" width="10.00" height="11.00" rx="1.01"/>
<rect fill="#000000" x="-5.00" y="-5.50" transform="translate(723.00,250.51) rotate(-0.3)" width="10.00" height="11.00" rx="0.95"/>
<rect fill="#000000" x="-5.00" y="-5.47" transform="translate(1026.00,250.46) rotate(0.3)" width="10.00" height="10.94" rx="0.74"/>
<rect fill="#000000" x="-4.50" y="-5.50" transform="translate(1240.50,250.49) rotate(0.2)" width="9.00" height="11.00" rx="1.17"/>
<path fill="#000000" d="
  M 951.34 275.07
  L 944.68 274.85
  A 0.57 0.55 0.6 0 1 944.13 274.31
  L 944.06 268.36
  A 1.43 1.34 -0.4 0 1 945.49 267.00
  L 951.28 267.00
  A 1.80 1.74 -89.7 0 0 953.02 265.22
  L 953.16 252.68
  A 0.55 0.52 -89.4 0 1 953.68 252.14
  L 962.31 252.14
  A 0.56 0.53 89.4 0 1 962.84 252.69
  L 962.98 266.02
  A 0.99 0.96 89.7 0 0 963.94 267.00
  L 974.84 267.00
  A 1.08 1.01 0.3 0 1 975.92 268.02
  L 975.87 274.33
  A 0.56 0.52 0.5 0 1 975.31 274.84
  L 963.97 274.98
  A 0.98 0.94 -0.3 0 0 963.00 275.92
  Q 963.00 285.30 963.00 294.81
  C 963.00 299.28 962.36 302.48 965.94 304.29
  C 969.35 306.02 975.40 303.92 978.56 302.34
  A 1.00 0.99 -13.2 0 1 980.00 303.23
  L 980.00 309.37
  A 1.96 1.96 79.6 0 1 978.74 311.20
  C 967.20 315.68 953.58 313.53 953.15 298.43
  Q 952.86 288.07 953.02 276.76
  A 1.74 1.67 1.4 0 0 951.34 275.07
  Z"
/>
<path fill="#000000" d="
  M 476.61 281.02
  Q 474.28 273.65 466.89 274.96
  C 463.76 275.52 461.21 276.16 460.31 279.31
  C 459.15 283.39 452.96 282.06 449.74 281.94
  A 0.67 0.66 -82.6 0 1 449.11 281.12
  C 451.01 272.96 455.56 268.07 464.09 266.87
  C 470.86 265.92 481.15 267.37 484.62 274.20
  Q 485.93 276.78 485.96 282.15
  Q 486.04 292.95 486.17 303.75
  Q 486.22 307.35 487.87 310.41
  C 488.69 311.95 492.00 313.48 486.29 312.93
  Q 484.70 312.78 483.11 312.92
  Q 477.14 313.46 476.85 309.00
  Q 476.80 308.19 476.12 308.64
  Q 465.26 315.94 455.10 311.69
  C 441.18 305.87 446.80 288.83 459.81 286.29
  C 465.00 285.27 471.95 284.27 476.32 281.77
  A 0.65 0.65 66.2 0 0 476.61 281.02
  Z
  M 462.95 293.81
  C 455.35 295.83 455.92 306.85 465.25 305.00
  C 471.63 303.74 478.51 299.43 476.97 291.98
  A 1.26 1.26 -11.0 0 0 475.51 291.00
  Q 469.17 292.16 462.95 293.81
  Z"
/>
<path fill="#000000" d="
  M 508.00 273.55
  Q 508.30 274.20 508.70 273.60
  Q 512.13 268.49 517.22 267.17
  C 525.85 264.93 537.91 269.71 537.95 280.25
  Q 538.00 296.25 538.00 311.89
  A 1.11 1.08 -89.7 0 1 536.91 313.00
  L 528.90 312.94
  A 0.93 0.91 90.0 0 1 528.00 312.02
  Q 527.89 297.55 528.14 283.11
  C 528.28 275.20 521.62 271.82 515.06 275.81
  C 509.49 279.20 507.55 285.03 507.40 291.82
  Q 507.17 301.88 506.95 311.94
  A 0.66 0.65 -6.4 0 1 506.45 312.56
  Q 502.66 313.51 498.79 312.79
  A 0.62 0.62 5.3 0 1 498.30 312.20
  L 498.01 267.91
  A 0.92 0.90 -0.3 0 1 498.93 267.00
  L 505.75 267.00
  A 1.25 1.25 0.0 0 1 507.00 268.25
  Q 506.99 271.34 508.00 273.55
  Z"
/>
<path fill="#000000" d="
  M 569.82 313.42
  C 539.66 314.06 540.35 267.15 566.81 266.70
  C 581.37 266.46 589.28 275.95 589.01 290.00
  A 1.03 1.02 0.6 0 1 587.98 291.00
  L 558.32 291.06
  A 0.56 0.56 2.8 0 0 557.76 291.56
  C 556.48 306.55 578.29 310.39 579.00 296.95
  A 0.97 0.92 -87.8 0 1 579.94 296.03
  L 587.97 296.20
  A 1.25 1.17 -82.6 0 1 589.06 297.72
  C 586.83 307.54 579.87 313.21 569.82 313.42
  Z
  M 559.16 282.83
  L 576.50 282.99
  Q 578.67 283.01 577.97 280.92
  C 577.05 278.15 575.62 276.46 572.76 275.47
  Q 563.26 272.21 558.30 281.33
  A 1.02 1.00 -75.3 0 0 559.16 282.83
  Z"
/>
<path fill="#000000" d="
  M 636.21 293.45
  C 628.12 291.93 618.76 288.24 620.60 277.82
  C 622.59 266.51 638.39 265.10 647.13 267.98
  Q 655.22 270.65 656.37 280.23
  A 0.72 0.67 87.0 0 1 655.70 281.04
  L 648.22 280.92
  A 1.09 0.99 84.3 0 1 647.24 280.04
  C 646.01 273.81 637.61 274.02 633.16 276.03
  Q 630.77 277.11 630.38 280.91
  A 2.31 2.30 14.3 0 0 631.79 283.28
  C 640.09 286.78 656.80 286.99 657.59 298.85
  C 658.77 316.53 620.63 320.60 619.09 297.82
  A 0.54 0.49 87.3 0 1 619.56 297.24
  L 627.76 297.10
  A 0.99 0.91 83.6 0 1 628.68 297.90
  Q 629.57 302.38 632.20 304.04
  C 635.84 306.34 649.57 306.43 646.95 298.52
  C 645.65 294.59 639.73 294.11 636.21 293.45
  Z"
/>
<path fill="#000000" d="
  M 857.95 292.74
  C 858.65 303.31 869.70 309.25 878.07 301.54
  A 1.63 1.42 -19.2 0 0 878.55 300.70
  L 879.36 296.68
  A 0.65 0.59 -84.1 0 1 879.95 296.15
  L 888.76 296.04
  A 0.95 0.91 -84.8 0 1 889.65 297.16
  C 885.25 321.19 851.11 317.49 848.00 294.25
  C 846.20 280.83 852.73 268.51 866.43 266.93
  C 873.76 266.08 880.29 268.29 884.86 274.01
  C 888.31 278.33 889.18 284.40 889.84 290.02
  A 0.88 0.87 -3.5 0 1 888.97 291.00
  L 859.57 291.00
  A 1.63 1.62 88.0 0 0 857.95 292.74
  Z
  M 878.72 281.14
  C 874.86 272.72 864.65 272.73 859.57 280.14
  Q 857.62 283.00 861.08 283.00
  L 877.52 283.00
  A 1.32 1.31 -12.3 0 0 878.72 281.14
  Z"
/>
<path fill="#000000" d="
  M 995.37 275.76
  L 995.53 275.74
  A 0.34 0.23 -73.0 0 0 995.76 275.55
  C 999.06 269.49 1007.68 266.83 1014.49 266.96
  A 1.49 1.46 0.4 0 1 1015.95 268.41
  L 1016.00 275.46
  A 1.36 1.34 7.9 0 1 1014.26 276.75
  C 1006.47 274.49 1000.48 279.62 996.44 285.69
  C 993.57 289.99 995.00 306.24 995.00 312.10
  A 0.66 0.61 89.1 0 1 994.41 312.76
  L 986.15 312.98
  A 1.19 1.12 89.3 0 1 985.00 311.79
  L 985.00 267.66
  A 0.66 0.66 -89.9 0 1 985.66 267.00
  L 993.91 267.00
  A 1.10 1.09 89.7 0 1 995.00 268.09
  L 995.06 275.38
  A 0.37 0.28 87.4 0 0 995.37 275.76
  Z"
/>
<path fill="#000000" d="
  M 1213.94 308.32
  Q 1213.91 308.12 1213.75 308.24
  C 1206.92 313.46 1197.82 315.49 1190.71 310.88
  C 1180.17 304.05 1183.81 290.77 1194.70 286.91
  C 1198.08 285.70 1205.53 284.37 1210.70 283.14
  C 1213.10 282.57 1215.36 281.61 1213.20 278.77
  C 1208.75 272.94 1198.98 273.50 1196.82 281.02
  A 1.84 1.71 8.5 0 1 1195.02 282.25
  L 1187.19 281.99
  A 0.68 0.65 7.3 0 1 1186.54 281.19
  Q 1188.26 273.60 1193.45 269.84
  C 1199.46 265.48 1209.74 265.90 1216.44 269.06
  C 1222.79 272.06 1223.70 277.62 1223.84 284.71
  Q 1224.07 295.86 1224.23 307.01
  C 1224.26 309.50 1225.08 310.50 1226.53 312.35
  Q 1227.04 312.99 1226.23 312.99
  L 1217.31 312.95
  A 1.54 1.49 -25.8 0 1 1216.40 312.65
  Q 1214.29 311.08 1213.94 308.32
  Z
  M 1195.55 302.36
  C 1200.29 309.89 1217.64 300.28 1213.65 291.51
  A 0.68 0.67 -15.2 0 0 1212.95 291.12
  C 1208.68 291.66 1190.34 294.08 1195.55 302.36
  Z"
/>
<path fill="#000000" d="
  M 1370.62 281.03
  Q 1368.56 273.81 1360.19 275.19
  C 1356.31 275.82 1355.62 276.55 1354.18 279.90
  C 1352.70 283.35 1347.78 281.86 1344.66 282.05
  A 1.29 1.28 5.1 0 1 1343.33 280.46
  C 1346.57 267.18 1357.86 264.63 1369.94 267.98
  Q 1380.99 271.04 1380.00 282.75
  Q 1379.70 286.33 1380.13 299.06
  C 1380.36 305.84 1380.02 307.50 1383.27 312.37
  Q 1383.69 313.00 1382.94 313.00
  C 1379.22 313.00 1371.45 314.49 1371.04 309.43
  C 1370.83 306.84 1369.14 309.31 1368.37 309.83
  Q 1359.22 315.95 1349.44 312.06
  C 1340.76 308.61 1338.73 298.70 1344.33 291.75
  C 1350.50 284.10 1362.20 286.35 1370.32 281.76
  A 0.64 0.63 -23.0 0 0 1370.62 281.03
  Z
  M 1352.83 303.42
  C 1359.26 308.25 1370.72 301.65 1371.25 294.50
  Q 1371.57 290.15 1367.96 291.17
  C 1361.05 293.14 1348.72 293.47 1352.47 302.94
  A 1.10 1.08 8.8 0 0 1352.83 303.42
  Z"
/>
<rect fill="#000000" x="599.00" y="267.00" width="10.00" height="45.98" rx="0.97"/>
<rect fill="#000000" x="718.00" y="267.00" width="10.00" height="46.00" rx="0.69"/>
<path fill="#000000" d="
  M 916.18 304.55
  C 922.83 307.21 930.19 302.62 929.99 295.22
  A 1.12 1.05 89.7 0 1 931.07 294.06
  L 940.20 294.22
  A 0.85 0.80 -83.9 0 1 940.96 295.22
  Q 936.97 317.02 914.19 313.06
  Q 908.67 312.10 904.36 307.13
  C 893.23 294.26 896.87 272.28 914.25 267.50
  C 925.81 264.32 938.34 270.55 939.52 283.31
  A 0.49 0.46 87.1 0 1 939.07 283.85
  L 930.80 283.97
  A 1.70 1.58 77.7 0 1 929.29 282.92
  Q 925.80 274.49 918.92 275.51
  C 906.10 277.42 904.73 299.95 916.18 304.55
  Z"
/>
<rect fill="#000000" x="1021.00" y="267.01" width="10.00" height="45.98" rx="0.98"/>
<path fill="#000000" d="
  M 1068.75 313.00
  C 1047.33 318.06 1033.79 294.33 1044.64 276.88
  C 1050.10 268.10 1060.19 265.10 1070.10 267.82
  C 1078.09 270.02 1080.70 275.66 1082.75 283.01
  A 0.79 0.73 82.0 0 1 1082.05 284.01
  L 1072.93 283.86
  A 0.67 0.59 83.4 0 1 1072.34 283.32
  C 1070.38 273.56 1058.71 272.77 1054.05 281.00
  Q 1050.27 287.67 1051.71 295.26
  C 1053.71 305.75 1068.19 309.80 1072.51 298.70
  C 1074.07 294.71 1071.14 294.00 1077.17 294.00
  Q 1079.98 294.00 1082.94 294.00
  A 1.01 1.01 -85.8 0 1 1083.94 295.16
  C 1082.53 304.45 1078.26 310.75 1068.75 313.00
  Z"
/>
<rect fill="#000000" x="1236.00" y="266.98" width="9.00" height="45.98" rx="1.03"/>
<path fill="#000000" d="
  M 1305.96 280.27
  Q 1305.55 278.73 1305.11 280.27
  Q 1300.74 295.61 1297.00 310.00
  Q 1296.18 313.15 1293.45 313.14
  C 1291.32 313.13 1289.49 313.26 1287.80 312.83
  A 0.96 0.92 87.9 0 1 1287.16 312.21
  Q 1280.56 291.85 1274.26 268.51
  A 1.06 1.06 -12.0 0 1 1275.12 267.19
  Q 1278.72 266.66 1283.06 267.13
  A 0.76 0.71 -3.1 0 1 1283.70 267.67
  L 1291.20 297.21
  A 0.60 0.48 75.8 0 0 1291.81 297.67
  C 1292.98 297.37 1299.60 270.69 1300.43 267.55
  A 0.67 0.66 -83.0 0 1 1301.06 267.05
  L 1309.91 267.00
  A 1.07 1.03 82.2 0 1 1310.93 267.80
  L 1318.31 296.21
  Q 1319.26 299.88 1320.19 296.20
  L 1327.32 267.91
  A 0.77 0.77 1.7 0 1 1327.93 267.34
  Q 1332.19 266.53 1336.52 267.25
  A 0.82 0.81 13.2 0 1 1337.17 268.28
  L 1324.50 311.25
  Q 1324.17 312.36 1320.50 313.00
  Q 1317.61 313.50 1315.02 312.40
  A 1.11 0.98 -88.2 0 1 1314.44 311.70
  L 1305.96 280.27
  Z"
/>
<path fill="#000000" d="
  M 1409.00 298.42
  Q 1410.15 301.38 1411.29 298.44
  L 1423.00 268.00
  A 1.54 1.49 -79.0 0 1 1424.42 267.01
  L 1433.13 267.05
  A 0.49 0.48 -78.0 0 1 1433.56 267.73
  Q 1424.60 288.83 1416.28 309.51
  C 1411.71 320.86 1408.63 329.79 1394.03 325.58
  A 0.88 0.85 -89.1 0 1 1393.44 324.95
  Q 1392.66 321.70 1393.12 317.40
  A 1.26 1.25 -71.2 0 1 1395.02 316.46
  Q 1398.15 318.38 1401.39 317.30
  C 1405.85 315.81 1405.34 312.93 1403.83 309.20
  Q 1395.69 289.01 1387.22 268.71
  A 1.24 1.23 -11.4 0 1 1388.36 267.00
  L 1395.70 267.00
  A 1.56 1.53 -10.4 0 1 1397.15 267.98
  L 1409.00 298.42
  Z"
/>
</svg>
